<svg xmlns="http://www.w3.org/2000/svg" viewBox="0 0 74.7 41.13" style="width:50px"><defs><style>.cls-1{fill:#fff;}</style></defs><g id="Layer_2" data-name="Layer 2"><g id="Layer_1-2" data-name="Layer 1"><path class="cls-1" d="M.29,41.13a.26.26,0,0,1-.29-.3L.12.3A.21.21,0,0,1,.35.06l11-.06a10.94,10.94,0,0,1,5.93,1.54,12,12,0,0,1,4.27,4.27,11.34,11.34,0,0,1,1.6,5.93V28.68a11.94,11.94,0,0,1-1.66,6.22,12.34,12.34,0,0,1-10.67,6.17ZM7.2,33.87h3.66a4.93,4.93,0,0,0,3.68-1.54,5,5,0,0,0,1.51-3.65v-17a4.5,4.5,0,0,0-1.39-3.27,4.29,4.29,0,0,0-3.27-1.33l-4.13.06Z"/><path class="cls-1" d="M28.08,41.13c-.16,0-.23-.1-.23-.3L27.91.3c0-.16.07-.24.23-.24H47.08q.24,0,.24.3V7a.21.21,0,0,1-.24.24H35v9.2H47.08a.21.21,0,0,1,.24.24l.06,6.67a.21.21,0,0,1-.24.23H35V33.87H47.14c.16,0,.24.1.24.29v6.73a.21.21,0,0,1-.24.24Z"/><path class="cls-1" d="M59.23,41.13c-.15,0-.25-.1-.29-.3L50.8.3c0-.16,0-.24.23-.24H57.7A.28.28,0,0,1,58,.3l4.83,27L67.55.3a.28.28,0,0,1,.3-.24h6.61c.19,0,.27.08.23.24l-8,40.53q-.06.3-.3.3Z"/></g></g></svg>