<svg xmlns="http://www.w3.org/2000/svg" viewBox="0 0 191.86 167.96"><g id="Layer_2" data-name="Layer 2"><g id="Layer_1-2" data-name="Layer 1"><path d="M96,168q-35.38,0-70.76,0c-12.48,0-22.11-7.58-24.57-19.3a31.68,31.68,0,0,1-.6-6.45Q0,83.92,0,25.65C0,13,6.89,3.82,18.68.82A28.2,28.2,0,0,1,25.6,0Q96,0,166.36,0c15.12,0,25.48,10.32,25.49,25.41q0,58.64,0,117.29c0,15-10.36,25.22-25.37,25.23Q131.21,168,96,168Zm-.09-35.88q17.75,0,35.5,0c4.06,0,6.32-2,6.59-5.61,1-13.9-10.51-28.61-24.45-29.84-10.66-1-21.46-.45-32.2-.52a17.64,17.64,0,0,0-4.18.64C63.65,100,55.59,109.5,54,124c-.6,5.42,1.71,8,7.13,8Zm24.12-72A24.35,24.35,0,0,0,96.05,35.89c-13-.06-24.09,11-24.2,24S82.85,84,95.88,84A24.31,24.31,0,0,0,120,60.05Z"/></g></g></svg>