<svg xmlns="http://www.w3.org/2000/svg" viewBox="0 0 239.61 167.37"><g id="Layer_2" data-name="Layer 2"><g id="Layer_1-2" data-name="Layer 1"><path d="M135.59,167.37c-3.51-2.5-3.83-5.71-2.67-9.65,1.77-6,3.18-12.06,4.67-18.11a20.21,20.21,0,0,1,5.56-9.82q22.26-21.91,44.41-43.94c.46-.46,1-.89,1.26-1.17L215,110.83c-.14.17-.53.66-1,1.11q-22.6,22.62-45.22,45.25a16.63,16.63,0,0,1-8.3,4.75c-5.84,1.33-11.63,2.87-17.43,4.37a15.39,15.39,0,0,0-2.44,1.06Z"/><path d="M215.42,48.06c-7.33,1-12.76,4.9-17.7,9.83q-32.28,32.27-64.67,64.39c-4.54,4.5-6.72,10-8.07,16-1.22,5.44-1.31,5.42-6.77,5.42q-46.12,0-92.26,0c-5.95,0-11.59-1.21-16.41-5C3.64,134.06.12,128,.1,120.5Q-.06,71.87.1,23.25C.15,11.38,9.59,1.54,21.43.37q3.48-.34,7-.35,80.64,0,161.28,0c12.52,0,22.09,7,25,18.17a15.53,15.53,0,0,1,.69,3.67C215.44,30.49,215.42,39.14,215.42,48.06ZM65.19,54.5c5.85.07,8.92-2.25,9.44-6.23.59-4.45-1.65-7.56-6.29-8.73a22.61,22.61,0,0,0-3.4-.79c-2.36-.24-3.44-1.24-3.74-3.81a7.29,7.29,0,0,0-7.85-6.76,7.55,7.55,0,0,0-7.29,7.69c-.05,1.71-.68,2.24-2.19,2.61a20.64,20.64,0,0,0-11.64,7.21c-5.92,7.5-5.7,18.43.86,24.31,4.39,4,9.78,6.17,15.38,8a130.57,130.57,0,0,1,13.25,5c3,1.36,3.13,4.91.18,6.43-1.93,1-4.34,1.88-6.39,1.63-4.65-.59-9.21-1.93-13.82-2.93a33.61,33.61,0,0,0-6.8-1.21c-3.4,0-6,2.57-6.7,6A6.67,6.67,0,0,0,32,100.75c3.79,1.66,7.71,3,11.63,4.31,1.61.53,2.33,1.1,2.43,3,.3,5.89,5.4,8.93,10.84,6.7a6.65,6.65,0,0,0,4.38-6.14c.11-2,1.08-2.79,2.85-3.33A30.48,30.48,0,0,0,69.68,103c11.78-6.28,13.2-24.11,2.46-32a45.41,45.41,0,0,0-15.62-6.93,63.4,63.4,0,0,1-11.11-4.32c-2.72-1.31-2.6-3.49.1-5A18.06,18.06,0,0,1,58.3,53C61,53.54,63.65,54.16,65.19,54.5ZM131.56,60q14.85,0,29.71,0c4.22,0,6.65-2.2,6.74-6s-2.58-6.3-6.74-6.31c-6.15,0-12.31,0-18.47,0-13.49,0-27,0-40.46,0-2.79,0-5.12.71-6.27,3.52C94.21,55.7,97,60,101.84,60,111.75,60.05,121.65,60,131.56,60ZM113.85,83.68c-3.91,0-7.82,0-11.73,0-4.18,0-6.55,2.26-6.59,6.13S97.82,96,102,96q11.71.06,23.44,0c4.12,0,6.59-2.42,6.52-6.22-.07-3.64-2.6-6.07-6.43-6.1S117.75,83.68,113.85,83.68Z"/><path d="M199.05,74.88c3.25-3.37,6.67-7.5,10.68-10.94,6.15-5.28,12.7-5.23,19-.09a51.16,51.16,0,0,1,8,8.16c4.36,5.58,3.65,12.67-1.84,18.87-3.19,3.61-6.8,6.84-9.93,10Z"/></g></g></svg>