<svg xmlns="http://www.w3.org/2000/svg" viewBox="0 0 120.86 198.63" style="width:50px"><defs><style>.cls-1{fill:#4babe2;}.cls-2{fill:#bf1352;}.cls-3{fill:#fff;}</style></defs><g id="Layer_2" data-name="Layer 2"><g id="Layer_1-2" data-name="Layer 1"><path class="cls-1" d="M109,88.29V16.11l-.4-.08c-4.81-.28-10.38-.6-16-1l-7.32-.53c-4.33-.32-8.42-.63-12.55-.83-1.8-.08-3.53-.22-5.22-.35l-.68,0c-2.73-.22-5.3-.43-7.74-.43h-1L57,12.9c-2.78,0-5.35-.23-7.83-.45-1.2-.11-2.34-.21-3.43-.27l-.8,0a12.59,12.59,0,0,1-4,1.9c-2.33,3.8-4.67,7.6-6.95,11.3l-1.41,2.28a14.44,14.44,0,0,1-2.4,7.73c-1.89,3-3.78,6-5.59,8.87,6.12,5.21,7,12.53,2.37,19.27L19.18,74.66Q15.6,79.84,12,85c0,.81,0,1.58-.07,2.31l0,1a14.34,14.34,0,0,0,.26,4.41l.07.19v0a18.24,18.24,0,0,1,2.89,2.59,8.19,8.19,0,0,0,1.27,1.17c4.14,2.9,8,6,11.78,8.94l1.53,1.21c3.35,2.64,6,4,8.65,4.52a25.76,25.76,0,0,1,5.79,1.93l.89.38c2.63,1,8.76,4.45,8.78,13.64v.17a13.7,13.7,0,0,1-1.52,6.41A12.45,12.45,0,0,1,54,140.22l.16.49.29.87a14.63,14.63,0,0,1,4.15,7.82,13.59,13.59,0,0,1,4.19,9.19l.08,1.08c.08.87.18,2,.18,3.17l0,2.95c0,3.7.08,7.53-.07,11.42,0,.33,0,.47.36,1.07l.12.21a21.33,21.33,0,0,1,2.82,6.11,4.8,4.8,0,0,0,.54-1.06c.18-.49.38-1,.59-1.41a21.44,21.44,0,0,1,5.12-6.76c.8-.76,1.58-1.44,2.27-2a24.72,24.72,0,0,0,2.29-2.12c4.42-5.21,9.6-7.94,15.4-8.15a23.2,23.2,0,0,1,1.92-1.87c2.33-2,6.23-5.34,12.42-5.93h.1c.67-.42,1.33-.82,2-1.22C109,132.19,109,110.17,109,88.29Z"/><path class="cls-2" d="M42.2,5.14c1.3.06,2.62.12,3.91.2s2.36.18,3.61.29c2.34.21,4.75.42,7.23.42h2.11c2.71,0,5.42.21,8.29.44,1.84.15,3.75.3,5.67.39,4.23.21,8.56.53,12.74.84L93,8.23c5.8.38,11.56.72,16.46,1l4.91,1.06a13.51,13.51,0,0,0,1.42.42c0,.16,0,.33,0,.49V39.46c0,38.35,0,78,0,117,0,1.38-.31,1.68-1.13,2.15-1.85,1-3.6,2.13-5.51,3.34l-.71,0-.94.07c-4,.38-6.68,2.65-8.61,4.3a20.35,20.35,0,0,0-2,2,7.24,7.24,0,0,1-1.19,1.19,2.83,2.83,0,0,1-1,.39h0c-.5,0-1-.08-1.51-.08-5.38,0-8.78,3.27-10.87,5.74a28,28,0,0,1-3,2.87c-.68.58-1.38,1.19-2.07,1.84a14,14,0,0,0-4,5.52,14.47,14.47,0,0,1-4.41,6,17,17,0,0,1-2,1.54,32.44,32.44,0,0,1-4.42-2.46l-1.71-1a1.44,1.44,0,0,1-.76-.9,12.55,12.55,0,0,0-2.35-6.85l-.13-.22a8.18,8.18,0,0,1-1.39-5c.14-3.73.1-7.47.07-11.09,0-1,0-2,0-3s-.09-1.83-.15-2.61c-.05-.48-.09-.93-.11-1.35a6.91,6.91,0,0,0-3.07-5.4c-.87-.63-.87-1-.87-1.24a7.72,7.72,0,0,0-3.56-6.79,25.25,25.25,0,0,0-.77-2.58,8,8,0,0,1-.55-2.16,5.63,5.63,0,0,0-2.69-5.32c0-.89,0-1.77,0-2.64v-.12A6.07,6.07,0,0,0,47,127.55v-.25c0-3.66-1.5-6.11-4.44-7.27l-1.13-.48a19.64,19.64,0,0,0-4.3-1.47c-3.78-.7-7.37-2.51-11.63-5.88L23.93,111c-3.68-2.91-7.48-5.92-11.45-8.7a15.42,15.42,0,0,1-2.4-2.16,9.3,9.3,0,0,0-2.95-2.29c-.42-.2-.78-1.11-1.32-2.58l-.07-.18c-.86-2.33-.76-5-.65-8,0-1.36.1-2.76.07-4.2l8.4-12.12L21.3,59.58c2.76-4,2.22-7.51-1.6-10.51L19,48.51c-.2-.15-.46-.34-.63-.48a6.42,6.42,0,0,0-2.06-3.46c2.52-4,5.32-8.49,8.11-12.9a7.45,7.45,0,0,0,1.17-5.73l2.58-4.19C31,17.13,33.9,12.38,36.8,7.65a6.06,6.06,0,0,0,.76,0A5.44,5.44,0,0,0,42.2,5.14M39.5,0a1,1,0,0,0-1.19,1c-.16,1.16-.29,1.66-.75,1.66A3.87,3.87,0,0,1,36.07,2a2,2,0,0,0-.93-.3c-.44,0-.79.29-1.14.87Q27.49,13.26,20.91,23.89a2.79,2.79,0,0,0-.41,2.7A2.42,2.42,0,0,1,20.14,29q-4.76,7.5-9.45,15c-1,1.58-.81,2.25.78,3.33.75.5,1.83,1,1.95,1.78.29,2,1.85,2.84,3.18,3.89,1.7,1.33,1.82,1.91.58,3.7Q8.95,68.58.72,80.47A2.51,2.51,0,0,0,.1,82c.3,5-.87,10,.93,14.85.83,2.23,1.59,4.44,4,5.56a4.71,4.71,0,0,1,1.39,1.14A19.42,19.42,0,0,0,9.6,106.4c4.39,3.08,8.56,6.43,12.76,9.74S30.9,122,36.19,123a26.19,26.19,0,0,1,4.49,1.67c1.39.55,1.26,1.75,1.27,2.92s-.79,1.19-1.61,1.26-.87.7-.88,1.33c0,2.61,0,5.22,0,7.83,0,1,.36,1.49,1.38,1.51.6,0,1.41,0,1.35.84-.2,2.7,1.51,5,1.61,7.58a1.52,1.52,0,0,0,1.19,1.4A2.75,2.75,0,0,1,47,152.28a6.29,6.29,0,0,0,2.93,5.3,2,2,0,0,1,1,1.59c.06,1.25.24,2.49.25,3.74,0,4.62.14,9.24,0,13.85a13.2,13.2,0,0,0,2.15,7.8A8.23,8.23,0,0,1,55.06,189a6.24,6.24,0,0,0,3.21,5.17A44.23,44.23,0,0,0,66,198.41a3.63,3.63,0,0,0,1.14.22,2.64,2.64,0,0,0,1.12-.26,16.74,16.74,0,0,0,3.92-2.74,19.49,19.49,0,0,0,5.83-8.06A9.35,9.35,0,0,1,80.73,184a66.25,66.25,0,0,0,5.47-5.12c1.91-2.25,4-4,7-4a7.5,7.5,0,0,1,.94.05l.58,0a7.15,7.15,0,0,0,3.29-.94c1.78-.91,2.72-2.64,4.15-3.87,1.71-1.47,3.38-2.89,5.81-3.12a7.72,7.72,0,0,0,3.64-.73c1.82-1.15,3.64-2.3,5.52-3.35a6.8,6.8,0,0,0,3.68-6.52q-.06-72.64,0-145.28a6.25,6.25,0,0,0,0-1.5c-.35-1.39-.55-2.93-2.22-3.48-.9-.29-1.87-.39-2.74-.75l-5.66-1.22c-5.61-.32-11.21-.65-16.81-1C86.66,2.77,80,2.17,73.26,1.85,68.53,1.63,63.82,1,59.06,1H57c-3.5,0-7-.48-10.53-.7C44.17.2,41.92.1,39.66,0Z"/><path class="cls-3" d="M83.77,96.89a10.27,10.27,0,0,0-1.67,0,2.86,2.86,0,0,1-2.86-1.14,1.62,1.62,0,0,1-.47-1.8c.22-.63.34-1.31.54-2.08-1.1.07-2.14.1-3.16.22a1.71,1.71,0,0,1-1.63-.65c-.44-.51-1-1-1.53-1.51l1.79-2.35a11.47,11.47,0,0,1-1.16.14c-.34,0-.79.07-1-.11a1.58,1.58,0,0,0-1.74-.15,12.47,12.47,0,0,1-16-10.55,11.38,11.38,0,0,1,5.91-11.5A2,2,0,0,0,61,65.2c-2.85-5.94-11.3-7.45-16.34-2.93a10.46,10.46,0,0,0,1.46,16.86c.62.38,1,.72.9,1.5a6.72,6.72,0,0,0,.14,1.52c-4.49-1.18-8.37-6.5-8.43-11.47A13,13,0,0,1,63.3,64.37a13,13,0,0,1,6.49.09c6,1.69,11,8.43,8.32,15.75a1.14,1.14,0,0,0,.3.94q8,8.17,16,16.3c1,1,2,2,3,3a1.07,1.07,0,0,1,.34,1.25c-.21.71-.31,1.44-.48,2.22L89,103.49a2.13,2.13,0,0,1,.17-.61c.53-.77.32-1.3-.43-1.8a1,1,0,0,0-1.12-.15c-2,.87-2,.83-3.61-.68a1.55,1.55,0,0,1-.58-1.92A9.2,9.2,0,0,0,83.77,96.89ZM62.22,68.57A3.66,3.66,0,0,0,59.49,73a3.93,3.93,0,0,0,4.09,3.1A3.59,3.59,0,0,0,67,72.52c0-1.74-1-3.38-2.28-3.56-.08,1.11-.1,2.24-.28,3.35a1.39,1.39,0,0,1-.84,1,1.71,1.71,0,0,1-1.28-.54c-.21-.23-.11-.77-.11-1.17C62.22,70.59,62.22,69.62,62.22,68.57Z"/><path class="cls-3" d="M75.65,118.87l-7.22-4.29,1.35-1.17c-.14-.33-.29-.62-.39-.92a1,1,0,0,0-1.11-.78c-2,0-2-.1-2.68-2a1.94,1.94,0,0,1,.54-2.56,5.54,5.54,0,0,0,.77-.89c-.74-.35-1.41-.71-2.12-1A2.14,2.14,0,0,1,63.56,104a2.34,2.34,0,0,1,.73-3.08,9.68,9.68,0,0,0,.9-1c-1-.44-1.94-.89-2.89-1.25a1.68,1.68,0,0,1-1.18-1.3c-.15-.66-.38-1.3-.61-2L63.11,94c-.93-.41-1.93-.47-2.3-1.52-.07-.18-.56-.25-.87-.3a12.41,12.41,0,0,1-10.43-13,11.14,11.14,0,0,1,2.6-6.67,15.08,15.08,0,0,0,.43,7.83A15.46,15.46,0,0,0,68.87,90.88c.55-.07.77.07.94.6q3.76,12.22,7.54,24.43a1.45,1.45,0,0,1-.2,1.08A23.25,23.25,0,0,1,75.65,118.87Z"/></g></g></svg>