<svg xmlns="http://www.w3.org/2000/svg" viewBox="0 0 65.2 80.3" style="width:50px"><defs><style>.cls-1{fill:#4d99cd;fill-rule:evenodd;}.cls-2{fill:#001e54;}.cls-3{fill:#012057;}.cls-4{fill:#fff;}</style></defs><g id="Layer_2" data-name="Layer 2"><g id="Layer_1-2" data-name="Layer 1"><polygon class="cls-1" points="34.23 79.21 25.65 71.19 6 67.23 2.63 63.98 0.87 57.6 6.65 52.86 10.63 43.97 14.58 43.81 16.99 36.34 29.76 24.65 27.44 20.48 35.26 12.76 32.84 8.32 42.75 1.18 49.54 17.39 51.96 15.48 57.6 25.57 62.77 32.87 64.42 39.01 61.03 53.57 63.93 59.48 64.26 64.24 63.09 65.66 47.13 64.79 34.23 79.21"/><path class="cls-2" d="M34.27,80.3l-9-8.41-19.65-4L2,64.39,0,57.32l6-4.94,4.1-9.15L14,43.07l2.31-7.16L28.8,24.49l-2.31-4.15,7.83-7.72L31.85,8.09,43.08,0l6.77,16.17,2.34-1.84L58.27,25.2l5.23,7.47L65.2,39,61.84,53.48l2.84,5.79L65,64.49l-1.61,2-16-.87ZM6.37,66.53l19.64,4,8.17,7.64L46.81,64l15.94.87.73-.89-.3-4.31-3-6L63.63,39,62.06,33.2,57,26l-5.25-9.38-2.51,2L42.42,2.36,33.84,8.54l2.37,4.36-7.82,7.72,2.33,4.18-13.07,12-2.51,7.79-4,.16L7.27,53.33,1.73,57.87l1.58,5.71Z"/><path class="cls-3" d="M28.1,33.76A15.77,15.77,0,1,1,25.88,56a15.76,15.76,0,0,1,2.22-22.2"/><path class="cls-4" d="M35.32,49.16q.15-.19-.12-.39l-.1-.07-.31.43.1.07C35.07,49.33,35.21,49.31,35.32,49.16Z"/><path class="cls-4" d="M41.51,52.94l-.1.15a.17.17,0,0,1-.23,0l-.33-.24-1,1.34a.16.16,0,0,1-.23,0l-.24-.17a.16.16,0,0,1,0-.23l1-1.33L40,52.29a.16.16,0,0,1,0-.23l.1-.15a.17.17,0,0,1,.23,0l1.17.84A.16.16,0,0,1,41.51,52.94Zm-3.09.43L38,53a.16.16,0,0,1-.07-.16l.25-1.72h0c-.14.22-.24.39-.32.5l-.51.71a.17.17,0,0,1-.23,0l-.19-.13a.17.17,0,0,1,0-.24L38,50.42a.17.17,0,0,1,.23,0l.45.33a.13.13,0,0,1,.07.15l-.23,1.71h0c.13-.2.23-.36.31-.47l.52-.72a.16.16,0,0,1,.23,0l.18.13a.17.17,0,0,1,0,.24l-1.16,1.61A.17.17,0,0,1,38.42,53.37Zm-2.13-1.54-.85-.61a.17.17,0,0,1,0-.23l1.16-1.62a.16.16,0,0,1,.23,0l.85.61a.16.16,0,0,1,0,.23l-.1.14a.17.17,0,0,1-.23,0L36.87,50l-.21.3.43.31a.16.16,0,0,1,0,.23L37,51a.16.16,0,0,1-.23,0l-.43-.31-.26.36.48.34a.16.16,0,0,1,0,.23l-.1.15A.17.17,0,0,1,36.29,51.83Zm-1.24-1a.17.17,0,0,1-.17,0l-.25-.18a.17.17,0,0,1-.06-.15l.08-.88-.13-.1-.4.55a.15.15,0,0,1-.23,0l-.24-.17a.17.17,0,0,1,0-.23l1.16-1.62A.17.17,0,0,1,35,48l.48.35c.52.37.64.74.38,1.11a.7.7,0,0,1-.69.28l0,.91A.18.18,0,0,1,35.05,50.83Zm6.49-2.26-5.89-4.24a4.61,4.61,0,0,0-2.35-.85,4.28,4.28,0,0,0-1.42.12,10.19,10.19,0,0,0-.49,2.2,1.4,1.4,0,0,1,1,.1l.18.11A1.41,1.41,0,0,1,31,48.3a1.39,1.39,0,0,1-.59-1.11,3.86,3.86,0,0,1-.12-1.72,10.43,10.43,0,0,1,.24-1.27,4.44,4.44,0,0,0-1.21,1.16,4.58,4.58,0,0,0,1.06,6.37L36.23,56a4.56,4.56,0,0,0,6.37-1A4.72,4.72,0,0,0,41.54,48.57Z"/><path class="cls-4" d="M40,39.87a3.85,3.85,0,0,1-.13.66l7.8,3-.53-.91Zm0-.7,7.56,2.88,1.09,1.83c.12.2,0,.36-.18.43l-2,.68-.12,0-.4-1-.13,0-1,.46-.13,0-.52-1.06-.13,0-1,.47-.13-.05-.4-1-.12,0-1,.47L41.15,43l-.52-1.06-.06,0-1.18.41-.52-.2a3.72,3.72,0,0,1-3.92.82,3.79,3.79,0,0,1-1.84-1.49,14.47,14.47,0,0,0-1.37,4.22c-.07.57-.06,1,.08,1.14s.05.05.11.05a.33.33,0,0,1,.36.29c0,.26-.18.4-.46.37a.79.79,0,0,1-.26-.08c-.47-.25-.6-.94-.49-1.86A15.8,15.8,0,0,1,32.59,41c.76-1.48,1.67-2.56,2.43-2.37a.33.33,0,0,1-.16.64c-.21-.06-.51.19-.83.61a1.34,1.34,0,0,0,.49.32,1.31,1.31,0,0,0,1.7-.77,1.33,1.33,0,0,0-.77-1.71,1.31,1.31,0,0,0-1.3.2,4.23,4.23,0,0,0-1.63,1.55,3.83,3.83,0,0,1,.24-1.36,3.72,3.72,0,0,1,4.8-2.16A3.77,3.77,0,0,1,40,39.17"/></g></g></svg>